<svg width="72" height="72" viewBox="0 0 72 72" fill="none" xmlns="http://www.w3.org/2000/svg">
<rect width="72" height="72" rx="36" fill="#916D5B" fill-opacity="0.25"/>
<rect x="14" y="14" width="44" height="44" rx="22" fill="#916D5B"/>
<path d="M40.5714 30.4444C40.5714 31.6232 40.0898 32.7536 39.2325 33.5871C38.3752 34.4206 37.2124 34.8889 36 34.8889C34.7876 34.8889 33.6248 34.4206 32.7675 33.5871C31.9102 32.7536 31.4286 31.6232 31.4286 30.4444C31.4286 29.2657 31.9102 28.1352 32.7675 27.3017C33.6248 26.4683 34.7876 26 36 26C37.2124 26 38.3752 26.4683 39.2325 27.3017C40.0898 28.1352 40.5714 29.2657 40.5714 30.4444ZM36 38.2222C33.8783 38.2222 31.8434 39.0417 30.3431 40.5003C28.8429 41.9589 28 43.9372 28 46H44C44 43.9372 43.1571 41.9589 41.6569 40.5003C40.1566 39.0417 38.1217 38.2222 36 38.2222Z" stroke="white" stroke-width="1.5" stroke-linecap="round" stroke-linejoin="round"/>
</svg>
